<svg width="28" height="43" viewBox="0 0 28 43" fill="none" xmlns="http://www.w3.org/2000/svg">
<path d="M13.8877 18.6239L0.3125 21.0852L5.4074 41.071C5.55508 41.6124 6.04734 42.0063 6.61344 42.0063H21.3813C21.9473 42.0063 22.4396 41.6124 22.5873 41.071L27.6824 21.0852L13.8877 18.6239ZM11.5361 14.9319C12.2163 14.9319 12.7667 14.3815 12.7667 13.7013V1.23065C12.7667 0.55043 12.2163 0 11.5361 0C10.8558 0 10.3054 0.55043 10.3054 1.23065V13.7013C10.3054 14.3815 10.8558 14.9319 11.5361 14.9319ZM16.4587 14.9319C17.1389 14.9319 17.6893 14.3815 17.6893 13.7013V1.23065C17.6893 0.55043 17.1389 0 16.4587 0C15.7784 0 15.228 0.55043 15.228 1.23065V13.7013C15.228 14.3815 15.7784 14.9319 16.4587 14.9319Z" fill="url(#paint0_linear_1_154)"/>
<defs>
<linearGradient id="paint0_linear_1_154" x1="13.9974" y1="42.0063" x2="13.9974" y2="0" gradientUnits="userSpaceOnUse">
<stop stop-color="#FD3A84"/>
<stop offset="1" stop-color="#FFA68D"/>
</linearGradient>
</defs>
</svg>
